<mxfile host="app.diagrams.net" modified="2023-05-05T01:43:32.864Z" agent="Mozilla/5.0 (Macintosh; Intel Mac OS X 10_15_7) AppleWebKit/605.1.15 (KHTML, like Gecko) Version/16.4 Safari/605.1.15" etag="Bdj8azX9NK0JzX7zn2B_" version="21.2.9" type="github">
  <diagram name="第 1 页" id="TquOfBSUUZ81E32Kx-ow">
    <mxGraphModel dx="1195" dy="689" grid="1" gridSize="10" guides="1" tooltips="1" connect="1" arrows="1" fold="1" page="1" pageScale="1" pageWidth="827" pageHeight="1169" math="0" shadow="0">
      <root>
        <mxCell id="0" />
        <mxCell id="1" parent="0" />
        <mxCell id="smBxRMf1LzLayMvyvTl3-3" style="edgeStyle=orthogonalEdgeStyle;rounded=0;orthogonalLoop=1;jettySize=auto;html=1;exitX=1;exitY=0.5;exitDx=0;exitDy=0;" edge="1" parent="1" source="smBxRMf1LzLayMvyvTl3-1" target="smBxRMf1LzLayMvyvTl3-2">
          <mxGeometry relative="1" as="geometry" />
        </mxCell>
        <mxCell id="smBxRMf1LzLayMvyvTl3-1" value="Low quality data" style="text;html=1;strokeColor=#b85450;fillColor=#f8cecc;align=center;verticalAlign=middle;whiteSpace=wrap;rounded=0;" vertex="1" parent="1">
          <mxGeometry x="60" y="370" width="100" height="30" as="geometry" />
        </mxCell>
        <mxCell id="smBxRMf1LzLayMvyvTl3-4" style="edgeStyle=orthogonalEdgeStyle;rounded=0;orthogonalLoop=1;jettySize=auto;html=1;exitX=1;exitY=0.5;exitDx=0;exitDy=0;entryX=0;entryY=0.5;entryDx=0;entryDy=0;" edge="1" parent="1" source="smBxRMf1LzLayMvyvTl3-2" target="smBxRMf1LzLayMvyvTl3-6">
          <mxGeometry relative="1" as="geometry">
            <mxPoint x="420" y="385" as="targetPoint" />
          </mxGeometry>
        </mxCell>
        <mxCell id="smBxRMf1LzLayMvyvTl3-2" value="Model" style="rounded=1;whiteSpace=wrap;html=1;fillColor=#fff2cc;strokeColor=#d6b656;" vertex="1" parent="1">
          <mxGeometry x="250" y="357.5" width="100" height="55" as="geometry" />
        </mxCell>
        <mxCell id="smBxRMf1LzLayMvyvTl3-8" style="edgeStyle=orthogonalEdgeStyle;rounded=0;orthogonalLoop=1;jettySize=auto;html=1;exitX=0.5;exitY=1;exitDx=0;exitDy=0;" edge="1" parent="1" source="smBxRMf1LzLayMvyvTl3-5">
          <mxGeometry relative="1" as="geometry">
            <mxPoint x="405" y="385" as="targetPoint" />
            <mxPoint x="405" y="309" as="sourcePoint" />
            <Array as="points" />
          </mxGeometry>
        </mxCell>
        <mxCell id="smBxRMf1LzLayMvyvTl3-5" value="High quality data" style="text;html=1;strokeColor=#b85450;fillColor=#f8cecc;align=center;verticalAlign=middle;whiteSpace=wrap;rounded=0;" vertex="1" parent="1">
          <mxGeometry x="350" y="274" width="110" height="30" as="geometry" />
        </mxCell>
        <mxCell id="smBxRMf1LzLayMvyvTl3-6" value="Model" style="rounded=1;whiteSpace=wrap;html=1;fillColor=#ffe6cc;strokeColor=#d79b00;" vertex="1" parent="1">
          <mxGeometry x="480" y="357.5" width="100" height="55" as="geometry" />
        </mxCell>
        <mxCell id="smBxRMf1LzLayMvyvTl3-7" value="Pretrain" style="text;html=1;strokeColor=none;fillColor=none;align=center;verticalAlign=middle;whiteSpace=wrap;rounded=0;fontSize=11;" vertex="1" parent="1">
          <mxGeometry x="180" y="358.5" width="60" height="30" as="geometry" />
        </mxCell>
        <mxCell id="smBxRMf1LzLayMvyvTl3-9" value="Updata parameters" style="text;html=1;strokeColor=none;fillColor=none;align=center;verticalAlign=middle;whiteSpace=wrap;rounded=0;fontSize=9;" vertex="1" parent="1">
          <mxGeometry x="377" y="380.5" width="60" height="30" as="geometry" />
        </mxCell>
      </root>
    </mxGraphModel>
  </diagram>
</mxfile>
